<svg xmlns="http://www.w3.org/2000/svg" viewBox="0 0 423.7 158"><defs><style>.cls-1{fill:#fff;}</style></defs><title>Asset 2</title><g id="Layer_2" data-name="Layer 2"><g id="Layer_1-2" data-name="Layer 1"><path class="cls-1" d="M28.62,36.07a19,19,0,0,1-7,1.33,18.55,18.55,0,0,1-7.3-1.4,17,17,0,0,1-9.43-9.8A20.82,20.82,0,0,1,3.6,18.7a20.82,20.82,0,0,1,1.32-7.5A17.45,17.45,0,0,1,8.65,5.27,17.06,17.06,0,0,1,14.38,1.4,18.58,18.58,0,0,1,21.65,0a19.13,19.13,0,0,1,6.43,1.12A13.84,13.84,0,0,1,33.4,4.55l-.7.8a12.73,12.73,0,0,0-2.37-1.93,16.6,16.6,0,0,0-2.81-1.37,15.94,15.94,0,0,0-3-.8A17.31,17.31,0,0,0,21.65,1a16.93,16.93,0,0,0-6.92,1.38A15.77,15.77,0,0,0,9.38,6.15a17.06,17.06,0,0,0-3.46,5.62A19.5,19.5,0,0,0,4.7,18.7a19.62,19.62,0,0,0,1.2,6.92,16.71,16.71,0,0,0,3.43,5.63A15.83,15.83,0,0,0,14.67,35a17.12,17.12,0,0,0,7,1.38,17.4,17.4,0,0,0,6.52-1.28A12.85,12.85,0,0,0,33.5,31.3l.8.75A13.59,13.59,0,0,1,28.62,36.07Z"/><path class="cls-1" d="M79.1,36.4,74.9,26.25H54.35L50,36.4H48.8L64.15,1h1.4L80.3,36.4ZM64.8,1.7l-10,23.6h19.8Z"/><path class="cls-1" d="M118.9,36.4,108.2,18.55H99.9V36.4H98.8V1h9.8a23.19,23.19,0,0,1,4,.35,9.92,9.92,0,0,1,3.57,1.32,7.72,7.72,0,0,1,2.58,2.68,8.56,8.56,0,0,1,1,4.4,8.25,8.25,0,0,1-1,4.15,8,8,0,0,1-2.45,2.67A10,10,0,0,1,113,18.05a14.8,14.8,0,0,1-3.57.45l10.75,17.9Zm-.3-26.65a7.46,7.46,0,0,0-.9-3.83,6.76,6.76,0,0,0-2.38-2.4,10.09,10.09,0,0,0-3.4-1.22A22.15,22.15,0,0,0,108,2H99.9V17.6h8.65q4.9,0,7.47-2.05A7,7,0,0,0,118.6,9.75Z"/><path class="cls-1" d="M140.8,36.4V1h1.1V36.4Z"/><path class="cls-1" d="M191.45,36.4l-25.4-34h-.15v34h-1.1V1h1.55L191.8,35H192V1h1.1V36.4Z"/><path class="cls-1" d="M240.34,36.45a26.29,26.29,0,0,1-7.41.95A19.51,19.51,0,0,1,225.27,36a17.62,17.62,0,0,1-5.91-4,17.42,17.42,0,0,1-3.78-6,20.21,20.21,0,0,1-1.33-7.42,20.11,20.11,0,0,1,1.35-7.43,17.6,17.6,0,0,1,3.77-5.9A17.19,17.19,0,0,1,225.2,1.4,19.53,19.53,0,0,1,232.7,0a19.12,19.12,0,0,1,6.6,1.1,17.88,17.88,0,0,1,5.3,3l-.8.8a11,11,0,0,0-2.33-1.67A16.38,16.38,0,0,0,238.67,2a19.32,19.32,0,0,0-3-.75,18.4,18.4,0,0,0-3-.25,17.74,17.74,0,0,0-7.1,1.38,16.3,16.3,0,0,0-5.48,3.77,17,17,0,0,0-3.5,5.6,19.14,19.14,0,0,0-1.22,6.85,19.79,19.79,0,0,0,1.2,6.9A16.57,16.57,0,0,0,220,31.17,16.25,16.25,0,0,0,225.57,35,18.82,18.82,0,0,0,233,36.4a24.82,24.82,0,0,0,6.4-.75,28.45,28.45,0,0,0,5.15-1.9V19.85h-9.2v-1h10.3V34.35A26.9,26.9,0,0,1,240.34,36.45Z"/><path class="cls-1" d="M293.9,2V17.55h17.75v1H293.9V36.4h-1.1V1H313V2Z"/><path class="cls-1" d="M367.8,18.7a20,20,0,0,1-1.38,7.53,17.53,17.53,0,0,1-3.8,5.89A17.26,17.26,0,0,1,356.85,36a19.47,19.47,0,0,1-14.5,0,17.4,17.4,0,0,1-5.78-3.88,17.84,17.84,0,0,1-3.8-5.89,20.21,20.21,0,0,1-1.37-7.53,20.21,20.21,0,0,1,1.37-7.53,18,18,0,0,1,3.8-5.9,17.45,17.45,0,0,1,5.75-3.87,19.6,19.6,0,0,1,14.55,0,17.25,17.25,0,0,1,5.75,3.87,17.67,17.67,0,0,1,3.8,5.9A20,20,0,0,1,367.8,18.7Zm-1.1,0a19.08,19.08,0,0,0-1.25-6.93,16.91,16.91,0,0,0-3.53-5.62,16.25,16.25,0,0,0-5.42-3.77,17.94,17.94,0,0,0-13.8,0,16.4,16.4,0,0,0-5.43,3.77,17,17,0,0,0-3.52,5.62,19.08,19.08,0,0,0-1.25,6.93,19.4,19.4,0,0,0,1.22,6.92,17,17,0,0,0,3.48,5.63A16.07,16.07,0,0,0,342.6,35a18.44,18.44,0,0,0,14,0,16.07,16.07,0,0,0,5.4-3.77,16.81,16.81,0,0,0,3.47-5.63A19.19,19.19,0,0,0,366.7,18.7Z"/><path class="cls-1" d="M409.1,36.4,398.4,18.55h-8.3V36.4H389V1h9.8a23.19,23.19,0,0,1,3.95.35,9.92,9.92,0,0,1,3.57,1.32,7.72,7.72,0,0,1,2.58,2.68,8.66,8.66,0,0,1,1,4.4A8.25,8.25,0,0,1,409,13.9a8.07,8.07,0,0,1-2.45,2.67,10,10,0,0,1-3.33,1.48,14.86,14.86,0,0,1-3.57.45l10.75,17.9Zm-.3-26.65a7.46,7.46,0,0,0-.9-3.83,6.76,6.76,0,0,0-2.38-2.4,10.09,10.09,0,0,0-3.4-1.22A22.15,22.15,0,0,0,398.2,2h-8.1V17.6h8.65c3.26,0,5.76-.68,7.47-2.05A7,7,0,0,0,408.8,9.75Z"/><path class="cls-1" d="M54.4,84.7c0,1.5-3.4,6.1-4.6,6.1s-1.6-1.6-4.4-1.8c.1,2.5.1,5.5.1,9.2,0,11.3-6,24.9-21,24.9-11.2,0-16-6.6-16-11.1a4.38,4.38,0,0,1,4.4-4.7,3.44,3.44,0,0,1,3.6,3.5c0,2.1-.4,2-.4,3.5,0,1.7,2.3,4.1,8,4.1,12.2,0,15.1-11.8,15.1-20,0-3.5,0-6.4-.1-8.9-2.7.5-5.2,1.2-6.3,1.2S31,90.2,31,89.2s1.1-4.3,2.7-4.3c1,0,3-.1,5.3-.2-.2-5.1-.5-7.3-.5-9.1,0-6.3,1-8.3,1-8.3-8.6,0-13.7-3.3-20.7-3.3C11.2,64,5.7,69.3,5.7,77.4a8,8,0,0,0,6.8,7.9c1.8,0,2.1-.7,3.5-.7s2.4,1.1,2.4,2.8c0,2.3-2.2,3.9-5.5,3.9C6.6,91.3,0,85.4,0,76.7c0-9.9,9.1-17.9,18.9-17.9,9.1,0,12.3,2.8,20.1,2.8,4.2,0,3.7-6.2,9.2-6.2,2.9,0,4,1.8,4,4.6,0,4.2-3.6,5.7-7.2,6.7a83.8,83.8,0,0,0-.4,8.6c0,2.1.3,4.4.6,9.2h.2c4.6,0,4.8-2.3,6.2-2.3A2.56,2.56,0,0,1,54.4,84.7Z"/><path class="cls-1" d="M90,110.6c.7-1,1.2-1.7,2-1.7a2.33,2.33,0,0,1,2,2,3.77,3.77,0,0,1-1,2.3c-2.5,3.5-6.2,8.9-11.6,8.9-8.6,0-8.9-11.8-8.9-11.8s-7.3,11.8-14.1,11.8c-5,0-7.3-5.2-7.3-9.8,0-15.4,9.9-25.4,16.1-25.4s7.4,5.2,7.5,5.6c.1-.2,2.3-4.1,4.9-4.1,1.7,0,2.5,1.3,2.5,2.9,0,2.3-3.8,4.2-3.8,12.8,0,6.9.5,13.1,3.9,13.1S88.1,113.2,90,110.6Zm-32.8.9c0,3.2.6,5.7,3.1,5.7,3,0,11.1-12,11.1-13.2s-1.4-1.5-1.4-3,1.2-2.4,1.2-3.9c0-3.5-.7-5.7-3.3-5.7C64.4,91.4,57.2,99.4,57.2,111.5Z"/><path class="cls-1" d="M114,113.4c0-6.5,2.7-13.8,2.7-16.9,0-1.5-.5-2-1.6-2-4,0-14.3,14.4-16.6,20.4-1.8,4.7-2.6,6.6-4.8,6.6s-3.3-1.4-3.3-3.5,1.3-21.8,1.3-25.3.3-5.1,2.5-5.1c2.5,0,4,2.2,4,6.1s-.3,12.7-.3,12.9c.5-.9,10.6-18.3,20-18.3a5.55,5.55,0,0,1,5.7,5.6c0,6.2-3.5,13.8-3.5,19.4,0,3.4,1.4,4.5,4.1,4.5,3.5,0,7.2-4.6,9.1-7.2.7-1,1.2-1.7,2-1.7a2.33,2.33,0,0,1,2,2,3.77,3.77,0,0,1-1,2.3c-2.5,3.5-7.5,9.6-13.4,9.6C117.8,122.8,114,118.9,114,113.4Z"/><path class="cls-1" d="M159.4,110.6c.7-1,1.2-1.7,2-1.7a2.33,2.33,0,0,1,2,2,3.77,3.77,0,0,1-1,2.3c-2.5,3.5-7.2,9.7-15.9,9.7a14.65,14.65,0,0,1-14.6-15.1c0-12.5,6.1-20.7,13.9-20.7,6.3,0,8.3,5,8.3,8.9,0,2.8-1.4,4.5-3.5,4.5a3.09,3.09,0,0,1-3.2-2.7c0-1.4,1-2,1-3.2a2.77,2.77,0,0,0-2.7-2.9c-3,0-7.8,6-7.8,16.1,0,7.2,3.8,10.6,9.7,10.6C153.9,118.4,157.5,113.2,159.4,110.6Z"/><path class="cls-1" d="M182.6,126.3a115.72,115.72,0,0,0,1-14.7s-7.5,10.3-14.9,10.3c-6.9,0-8.4-5.7-8.4-12.1A81,81,0,0,1,163.8,90c.7-2.2,1.4-2.8,2.8-2.8,2,0,4,1.8,4,4.7s-4,9.3-4,17.6c0,4.1,1.2,6.5,3.8,6.5s8.8-4.8,11.9-11.1a38.47,38.47,0,0,0,3.4-13.2c.1-2.4,1.1-3.8,2.5-3.8,2.2,0,4.3,2.1,4.3,5.2s-2,8.4-2,14a110.89,110.89,0,0,1-.9,14.3,61.71,61.71,0,0,0,10.9-10.8c.7-1,1.2-1.7,2-1.7a2.33,2.33,0,0,1,2,2,3.77,3.77,0,0,1-1,2.3c-2.9,3.9-7.4,8.5-14.7,13.9-3,17.6-9.9,30.9-18.4,30.9-5.5,0-10.2-4.2-10.2-8.9C160.2,141.1,171.3,134,182.6,126.3Zm-.9,6c-8.8,6.4-16.2,12.1-16.2,16.8,0,3.1,1.8,4,4.5,4C175.3,153.1,179.5,144.2,181.7,132.3Z"/><path class="cls-1" d="M325.7,108.8c0-14.6,3.4-29.1,3.4-36,0-3.2-.7-5.3-3.3-5.3-5.3,0-17.7,17.4-20.9,28-.5,11-1.1,21.3-1.1,22.5,0,2.2-2.4,3.5-4.1,3.5-2.5,0-2.6-1.7-2.6-3.4s2.1-30.8,2.1-43.6c0-9.9-1.6-12.4-4.4-12.4-4.9,0-12.6,11.2-18.7,23.5.5,6.5.6,14,.6,22.4,0,8.7-4,14.2-9.3,14.2-4.4,0-6.3-3.5-6.3-6.8,0-7.3,4-19.7,9.7-31.3-1.5-15.1-5.6-23.8-16.9-23.8a20.23,20.23,0,0,0-20.4,20.4c0,7.8,4,11.5,8.9,11.5,6.2,0,3.7-6.3,7.6-6.3a3,3,0,0,1,2.9,3.1c0,3.2-4.9,8-10.9,8-7.3,0-14.2-6.7-14.2-15.9a26,26,0,0,1,26.1-25.7c13,0,18.7,7.6,21.1,21.1,6.6-11.3,14.4-20.4,20.9-20.4,7.3,0,9.8,4.5,9.8,16.8,0,2.7-.1,6.3-.3,10.2,3.2-5.6,13-21.5,22.1-21.5,6.5,0,8.8,3.8,8.8,8.5,0,8-4.2,24.7-4.2,37.8,0,7.2,3.3,9.3,6.4,9.3,3.5,0,5.9-4,7.8-6.6.7-1,1.2-1.7,2-1.7a2.33,2.33,0,0,1,2,2,3.77,3.77,0,0,1-1,2.3c-2.5,3.5-6.2,8.9-11.6,8.9C331.1,122.1,325.7,117.3,325.7,108.8ZM271.5,95.6c-3.1,7.5-5.1,14.4-5.1,18.2,0,2.7.9,3.5,2,3.5,1.6,0,3.3-3.2,3.3-8.6C271.7,104,271.6,99.7,271.5,95.6Z"/><path class="cls-1" d="M343.9,107.2c0-10.3,2.3-19.8,5-19.8,2.5,0,3.9,1.7,3.9,4.1s-3,6.2-3,14.4,2.9,11.7,5.9,11.7c3.5,0,7.3-4.4,9.2-7,.7-1,1.2-1.7,2-1.7a2.33,2.33,0,0,1,2,2,3.77,3.77,0,0,1-1,2.3c-2.5,3.5-7.2,9.7-12.3,9.7C348.8,122.9,343.9,117.5,343.9,107.2Zm13.4-33.7c0,3.1-3.1,5.1-5.5,5.1a4,4,0,0,1-4.1-4c0-3.1,1.8-5.7,4.6-5.7C354.8,68.9,357.3,70.4,357.3,73.5Z"/><path class="cls-1" d="M392.2,110.6c.7-1,1.2-1.7,2-1.7a2.33,2.33,0,0,1,2,2,3.77,3.77,0,0,1-1,2.3c-2.5,3.5-7.2,9.7-15.9,9.7a14.64,14.64,0,0,1-14.6-15.1c0-12.5,6.09-20.7,13.9-20.7,6.3,0,8.3,5,8.3,8.9,0,2.8-1.4,4.5-3.5,4.5a3.09,3.09,0,0,1-3.2-2.7c0-1.4,1-2,1-3.2a2.77,2.77,0,0,0-2.7-2.9c-3,0-7.8,6-7.8,16.1,0,7.2,3.8,10.6,9.7,10.6C386.7,118.4,390.3,113.2,392.2,110.6Z"/><path class="cls-1" d="M392.29,107.9c0-11.2,7.6-20.8,14-20.8,4.61,0,6.31,2.2,6.31,6.1,0,8.3-8.81,16.7-12.6,19.3.59,3.4,3.2,5.5,8,5.5,5.9,0,9.8-4.8,11.7-7.4.7-1,1.2-1.7,2-1.7a2.33,2.33,0,0,1,2,2,3.77,3.77,0,0,1-1,2.3c-2.5,3.5-7.3,9.2-15.7,9.2S392.29,117.1,392.29,107.9ZM407.2,93.4c0-1.2-.5-1.7-1.41-1.7-2.29,0-6.79,8.2-6.79,15.4C402,105.2,407.2,99.5,407.2,93.4Z"/></g></g></svg>